<?xml version="1.0" standalone="no"?>
<!DOCTYPE svg PUBLIC "-//W3C//DTD SVG 20010904//EN"
 "http://www.w3.org/TR/2001/REC-SVG-20010904/DTD/svg10.dtd">
<svg version="1.0" xmlns="http://www.w3.org/2000/svg"
 width="601.000000pt" height="415.000000pt" viewBox="0 0 601.000000 415.000000"
 preserveAspectRatio="xMidYMid meet">

<g transform="translate(0.000000,415.000000) scale(0.100000,-0.100000)"
fill="#000000" stroke="none">
<path d="M2515 3836 c-257 -84 -390 -320 -320 -566 34 -120 99 -201 215 -270
82 -48 164 -65 279 -55 94 7 131 20 205 69 100 66 179 186 202 304 6 30 9 33
33 27 34 -9 33 -7 16 -48 -8 -20 -15 -46 -15 -57 0 -25 35 -97 61 -125 17 -19
17 -24 4 -75 -19 -70 -19 -158 0 -240 20 -85 40 -130 95 -214 25 -37 53 -80
62 -95 24 -35 23 -73 -2 -89 -24 -15 -25 -35 -3 -69 29 -44 23 -119 -16 -196
-19 -37 -40 -72 -48 -78 -23 -20 -28 0 -6 24 49 52 71 180 38 223 -8 11 -15
41 -15 71 0 64 -33 109 -86 119 -42 8 -55 29 -48 76 4 24 1 39 -10 50 -16 16
-51 14 -62 -4 -3 -5 6 -6 21 -2 18 4 30 2 36 -7 13 -21 11 -39 -5 -39 -24 0
-28 -18 -10 -46 11 -16 14 -28 7 -32 -5 -4 -15 -17 -22 -29 -6 -13 -17 -23
-23 -23 -6 0 -20 -7 -30 -17 -21 -19 -23 -6 -6 33 11 23 10 28 -10 45 -13 10
-30 15 -37 12 -9 -3 -15 1 -15 11 0 9 -6 13 -14 10 -8 -3 -17 3 -20 14 -4 11
-19 25 -35 32 -88 36 -231 -80 -231 -189 0 -37 -19 -78 -49 -105 -17 -15 -21
-31 -21 -76 0 -67 18 -90 72 -90 30 0 39 -6 62 -40 17 -26 41 -46 66 -56 25
-10 40 -23 40 -34 0 -9 9 -29 21 -44 29 -36 105 -38 138 -2 19 20 30 23 60 19
20 -3 38 -7 40 -9 2 -2 -12 -21 -31 -44 -29 -34 -36 -51 -41 -101 -6 -65 -19
-89 -48 -89 -31 0 -59 -36 -59 -75 0 -59 -26 -44 -63 38 -44 97 -117 169 -198
196 -40 13 -55 36 -64 98 -7 45 -52 95 -104 114 -37 15 -101 2 -131 -25 -14
-12 -44 -28 -68 -35 -23 -6 -57 -27 -76 -46 -19 -18 -52 -38 -74 -44 -67 -18
-137 -82 -197 -178 0 -1 -20 5 -44 13 -49 17 -89 9 -126 -25 -17 -17 -164
-124 -260 -190 -98 -68 -201 -150 -218 -173 -18 -24 -19 -31 -7 -95 36 -205
63 -340 71 -355 5 -9 30 -26 56 -38 44 -19 87 -40 308 -145 134 -63 206 -95
219 -95 20 0 66 50 73 78 3 14 21 51 39 83 18 32 36 68 40 81 3 13 24 53 44
90 21 37 41 76 45 88 4 12 21 47 39 79 18 31 38 71 44 89 6 18 24 48 39 69 26
34 28 42 25 120 -3 72 -1 84 14 90 10 4 19 2 22 -5 2 -6 22 -40 45 -74 35 -52
55 -70 115 -104 86 -49 130 -58 218 -44 48 8 70 8 79 0 8 -6 31 -10 52 -8 34
3 38 7 48 40 5 20 35 66 65 103 30 36 57 70 58 76 2 5 10 9 19 9 8 0 28 10 45
21 26 19 29 26 26 63 -3 31 1 50 19 78 13 21 23 42 23 48 0 5 4 10 9 10 4 0 6
-11 3 -25 -3 -19 4 -33 29 -57 35 -32 144 -87 176 -89 14 0 13 -2 -4 -9 -31
-13 -29 -33 7 -73 30 -34 30 -35 11 -58 -25 -33 -61 -105 -61 -123 0 -10 -6
-13 -15 -10 -8 4 -26 3 -40 0 -19 -5 -25 -13 -25 -34 0 -24 -6 -30 -52 -46
-57 -20 -118 -75 -118 -106 0 -33 -12 -51 -49 -70 -20 -10 -54 -37 -76 -59
-26 -28 -48 -41 -66 -41 -14 0 -38 -9 -52 -20 -17 -14 -40 -20 -74 -20 -67 0
-187 -33 -234 -65 -22 -14 -57 -44 -79 -66 -52 -53 -106 -89 -135 -89 -89 0
-160 -85 -121 -145 9 -13 16 -27 16 -31 0 -4 -35 -3 -79 0 -43 4 -90 4 -105 0
-29 -7 -35 -30 -8 -37 9 -3 -80 -3 -198 0 -218 6 -379 -6 -406 -28 -15 -13
-18 -28 -6 -46 11 -17 239 -61 411 -78 151 -15 514 -21 545 -9 9 3 16 16 16
29 l0 22 291 5 c248 4 293 7 306 21 14 14 14 18 3 32 -25 30 8 35 185 32 159
-2 175 -4 245 -31 90 -34 288 -65 419 -66 117 0 286 26 326 50 17 10 48 21 70
25 22 4 49 13 60 20 11 6 42 15 70 19 95 15 150 48 138 84 -16 43 -231 80
-392 68 -77 -6 -83 -5 -76 11 5 10 10 35 13 55 2 21 10 42 18 49 20 17 17 53
-6 74 -11 10 -20 22 -20 26 0 18 -62 98 -97 124 -53 41 -141 74 -195 75 -38 0
-46 3 -42 15 4 8 12 15 20 15 7 0 31 17 54 39 35 33 39 42 31 62 -6 17 -16 24
-35 24 -14 -1 -26 0 -26 1 0 0 9 27 21 60 41 118 59 221 59 332 0 192 -42 295
-178 443 -56 60 -85 82 -144 109 -54 26 -67 36 -51 38 23 3 25 8 41 87 23 112
23 134 2 155 -26 26 -21 45 36 170 60 133 86 255 83 400 -2 91 1 122 14 147
10 18 17 39 17 47 0 25 20 29 61 10 l40 -17 -8 -56 c-34 -239 72 -430 287
-515 63 -25 89 -29 160 -29 180 1 326 88 410 244 57 107 73 215 46 316 -62
231 -241 363 -479 351 -76 -4 -104 -11 -160 -36 -74 -34 -156 -98 -177 -137
-16 -31 -22 -31 -88 -3 -41 18 -52 27 -48 42 3 10 -2 36 -10 56 -20 50 -61 69
-111 51 -26 -10 -37 -10 -48 -1 -8 7 -26 10 -40 8 -17 -4 -31 2 -46 18 -16 17
-34 24 -60 24 -24 0 -39 5 -43 15 -4 10 -20 15 -52 15 -42 0 -51 -4 -85 -40
-34 -36 -41 -39 -76 -33 -47 7 -73 20 -73 36 0 6 -12 42 -26 80 -37 96 -112
176 -218 230 -78 39 -85 41 -186 44 -68 2 -119 -2 -145 -11z m126 -51 c42 -22
59 -54 59 -108 0 -84 -60 -165 -145 -196 -49 -17 -136 8 -182 54 -29 29 -33
39 -33 87 0 44 6 60 33 97 60 81 181 110 268 66z m703 -281 c23 -9 19 -37 -8
-64 -31 -28 -44 -79 -25 -91 8 -5 27 -9 42 -9 42 0 67 -17 67 -45 0 -48 -77
-69 -144 -40 -13 6 -17 5 -13 -3 4 -6 -1 -12 -10 -14 -10 -2 10 -7 44 -12 60
-7 63 -9 72 -39 5 -18 10 -24 10 -15 2 29 51 60 84 52 20 -4 34 -1 49 13 15
13 22 15 25 5 9 -24 36 -43 52 -36 66 28 82 -27 31 -109 -17 -28 -24 -45 -15
-37 8 7 19 10 23 6 13 -13 5 -219 -12 -289 -9 -37 -39 -118 -67 -180 -34 -75
-52 -131 -56 -169 l-6 -58 -48 0 -49 0 0 43 c0 58 -14 101 -43 132 -41 45
-106 169 -123 235 -16 62 -18 270 -3 285 4 3 19 1 35 -5 l29 -11 -36 38 c-54
56 -82 118 -76 166 6 43 46 93 81 100 11 2 6 4 -11 3 -32 -2 -33 0 -33 34 0
29 9 46 38 78 37 40 61 49 96 36z m118 -47 c4 -6 1 -21 -6 -32 -7 -11 -19 -30
-27 -42 -11 -19 -23 -23 -66 -23 -30 0 -53 5 -53 10 0 16 32 62 60 88 27 24
77 24 92 -1z m-419 -14 c-13 -2 -33 -2 -45 0 -13 2 -3 4 22 4 25 0 35 -2 23
-4z m1229 -32 c77 -86 -19 -246 -159 -266 -58 -8 -88 3 -127 44 -25 26 -30 39
-29 79 1 64 15 95 57 127 55 42 103 56 171 51 51 -4 64 -9 87 -35z m-1077 19
c7 -12 -21 -12 -85 -1 l-45 8 62 2 c34 0 65 -3 68 -9z m359 1 c3 -5 -1 -25 -9
-45 -8 -19 -15 -53 -15 -74 0 -45 -18 -65 -52 -60 -17 2 -24 10 -26 33 -1 17
-7 40 -13 51 -9 17 -6 29 15 63 22 35 31 41 61 41 18 0 36 -4 39 -9z m126 -4
c27 -13 43 -67 28 -89 -7 -10 -8 -9 -4 5 6 19 -10 24 -17 5 -3 -8 -6 -6 -6 5
-1 27 -21 20 -21 -8 0 -58 -57 -123 -90 -105 -39 21 -32 131 11 176 25 26 61
31 99 11z m114 -152 c32 -13 35 -18 26 -35 -10 -19 -12 -19 -48 -3 -20 10 -39
18 -41 20 -7 4 8 33 17 33 5 0 26 -7 46 -15z m-374 -41 c-19 -21 -50 -37 -50
-25 0 6 12 17 28 25 35 19 37 19 22 0z m-472 -701 c17 -24 16 -29 -19 -51 -56
-35 -177 -161 -199 -208 -20 -41 -23 -77 -9 -123 7 -25 -20 -23 -46 3 -29 29
-34 90 -10 122 8 10 15 15 15 9 0 -5 7 1 15 15 8 14 14 47 15 74 0 80 65 165
139 186 33 9 82 -5 99 -27z m33 -55 c0 -10 2 -10 6 0 8 21 25 13 19 -10 l-6
-23 11 23 c7 12 16 22 21 22 11 0 10 -41 -1 -59 -7 -10 -13 -11 -29 -2 -23 12
-99 5 -108 -10 -3 -5 -10 -9 -15 -9 -19 0 8 32 47 55 46 27 54 29 55 13z m276
-33 c26 -26 34 -41 31 -62 -2 -16 -8 -27 -16 -25 -8 1 -5 -12 9 -40 29 -55 30
-144 4 -185 -46 -70 -112 -112 -179 -114 l-31 -1 29 -8 c18 -6 45 -5 70 1 75
19 94 21 115 10 14 -8 21 -8 21 -1 0 22 73 10 109 -17 l36 -28 -50 -6 c-28 -3
-76 -18 -108 -33 -59 -28 -82 -27 -74 4 4 14 -4 19 -37 24 -74 12 -134 36
-139 56 -4 14 0 20 12 20 25 0 48 21 55 50 l7 25 -14 -24 c-20 -33 -46 -41
-79 -25 -44 23 -45 96 -3 161 25 38 29 20 6 -26 -35 -67 -25 -131 21 -131 23
0 23 16 -2 47 -24 31 -25 45 -5 84 13 24 20 28 40 23 20 -5 33 2 65 34 54 54
53 98 -3 159 -20 22 -20 23 -2 43 28 31 71 26 112 -15z m-207 -79 c1 -16 4
-14 14 10 22 51 54 52 93 4 7 -8 12 -33 12 -55 0 -32 -6 -45 -31 -64 -39 -31
-83 -20 -83 20 -1 15 -8 38 -17 51 -13 20 -14 28 -5 38 10 10 8 11 -8 5 -11
-5 -30 -8 -42 -8 -13 1 -20 -3 -17 -8 3 -5 11 -9 18 -9 7 0 21 -7 32 -15 18
-14 17 -14 -16 -10 -24 3 -28 2 -12 -3 47 -15 16 -27 -63 -24 -89 3 -117 -6
-96 -32 8 -9 18 -16 23 -16 7 0 6 5 -1 13 -16 21 -3 27 56 27 51 0 53 -1 54
-27 0 -26 1 -26 9 -7 10 24 70 40 70 18 0 -7 -5 -16 -10 -19 -21 -13 -50 -86
-50 -125 0 -28 7 -47 23 -62 12 -13 22 -26 22 -30 0 -3 3 -10 8 -14 12 -12 8
-36 -10 -56 -20 -22 -78 -24 -86 -3 -8 19 6 27 30 18 16 -6 16 -5 4 10 -14 17
-10 20 24 18 18 -1 18 0 -3 11 -33 17 -72 -4 -72 -37 0 -15 -4 -24 -10 -20
-21 13 -10 54 18 69 31 17 15 21 -21 5 -35 -16 -86 9 -121 60 -25 36 -28 47
-23 91 9 73 51 144 95 161 12 5 22 15 22 24 0 8 7 15 15 15 8 0 15 6 15 14 0
43 140 5 140 -38z m-180 19 c0 -8 -7 -15 -15 -15 -16 0 -20 12 -8 23 11 12 23
8 23 -8z m-320 -341 c36 -31 64 -80 56 -100 -3 -8 8 -34 25 -59 17 -25 34 -67
38 -93 7 -43 8 -45 15 -20 5 16 3 41 -3 59 -13 39 -2 36 67 -18 82 -64 109
-108 171 -278 10 -29 11 -29 8 13 -3 47 -1 49 26 25 11 -10 17 -12 13 -5 -13
21 2 59 25 65 30 8 78 -19 89 -49 12 -31 -2 -52 -107 -159 -40 -41 -63 -70
-52 -68 27 7 24 -14 -6 -33 -22 -14 -28 -15 -47 -2 -17 11 -32 12 -58 5 -57
-15 -159 -3 -215 26 -55 27 -133 104 -160 157 -17 34 -17 34 9 57 15 13 40 23
55 23 15 0 36 7 47 15 17 13 15 13 -18 3 -21 -6 -40 -9 -43 -6 -8 7 19 58 31
58 6 0 23 9 38 21 29 23 35 72 12 98 -11 12 -12 28 -6 66 5 28 9 59 9 71 1 20
-53 111 -74 126 -20 14 -29 8 -9 -7 18 -14 18 -14 -6 -15 -24 -1 -24 -1 6 -14
17 -8 39 -24 48 -37 17 -25 22 -79 7 -79 -23 0 -41 14 -41 31 0 24 -37 49 -72
49 -20 0 -28 5 -28 18 0 10 -5 23 -11 29 -9 9 -8 15 2 26 37 36 116 37 159 1z
m-170 -54 c12 -23 6 -40 -14 -40 -17 0 -82 -71 -91 -99 -9 -29 -22 -26 -40 9
-26 51 -1 109 60 136 43 19 73 17 85 -6z m1128 -37 c5 -17 -26 -29 -40 -15 -6
6 -7 15 -3 22 9 14 37 9 43 -7z m-1030 -36 c2 -18 13 -32 33 -42 22 -12 29
-22 29 -45 0 -27 -3 -30 -23 -25 -13 4 -39 0 -58 -8 l-34 -14 46 4 c58 7 89
-9 89 -44 0 -42 -26 -63 -80 -63 -33 0 -55 -6 -74 -21 l-26 -20 0 44 c0 30 7
53 21 71 11 14 16 26 10 26 -15 0 -41 -42 -41 -67 0 -27 -14 -30 -32 -8 -7 9
-18 21 -24 28 -6 7 -16 29 -23 49 -16 48 2 93 55 137 33 27 46 31 84 29 41 -3
45 -6 48 -31z m-268 -2 c0 -8 -7 -15 -15 -15 -42 0 -142 -77 -157 -122 -3 -7
-9 -10 -13 -5 -18 16 50 90 113 124 73 38 72 38 72 18z m1426 -56 c10 -17 -13
-36 -27 -22 -12 12 -4 33 11 33 5 0 12 -5 16 -11z m-1421 -29 c3 -11 15 -25
26 -30 10 -6 19 -17 19 -25 0 -8 20 -39 45 -69 25 -31 45 -62 45 -70 0 -32
-56 -28 -142 9 -46 20 -87 41 -92 46 -6 5 -18 9 -28 9 -26 0 -22 21 12 69 27
37 82 81 102 81 4 0 10 -9 13 -20z m-122 -163 c108 -54 197 -100 197 -104 0
-6 -85 -115 -144 -184 -17 -20 -46 -54 -63 -75 -140 -168 -147 -175 -174 -170
-14 3 -65 22 -112 43 -77 34 -87 41 -87 64 0 16 5 26 13 26 6 -1 37 5 69 12
l56 14 7 88 c4 48 3 94 -1 101 -5 7 -7 21 -6 31 4 20 -24 24 -31 5 -3 -7 -6 6
-6 29 -1 48 -12 59 -43 42 -39 -21 -47 -41 -49 -119 -1 -69 -2 -72 -12 -40 -6
19 -11 36 -12 37 -5 8 -66 -24 -71 -37 -4 -8 -10 -47 -13 -87 l-6 -71 -113 51
c-91 42 -112 56 -110 71 3 19 25 38 163 135 39 28 81 59 95 70 14 11 29 21 33
21 5 0 30 18 56 40 26 22 50 40 54 40 4 0 28 16 53 35 26 20 50 34 53 33 4 -2
96 -47 204 -101z m1637 28 c0 -8 -6 -15 -14 -15 -17 0 -28 14 -19 24 12 12 33
6 33 -9z m-1340 -95 c-19 -17 -43 -30 -54 -30 -14 0 -10 6 16 24 33 22 56 34
68 35 3 0 -11 -13 -30 -29z m-60 -72 c0 -13 3 -54 6 -93 4 -52 3 -66 -5 -55
-9 13 -19 7 -56 -35 -25 -27 -56 -66 -69 -85 -13 -19 -34 -44 -46 -55 -13 -11
9 24 48 77 39 54 65 95 56 91 -8 -3 -30 -27 -47 -52 -70 -102 -133 -180 -144
-181 -20 0 -15 12 22 55 19 22 35 44 35 49 0 5 16 27 36 50 86 100 135 168
136 189 0 39 8 67 18 67 6 0 10 -10 10 -22z m-913 -207 c32 -16 93 -46 136
-66 42 -21 77 -43 77 -50 0 -8 18 -33 39 -57 125 -138 148 -168 148 -195 1
-15 3 -40 5 -55 6 -29 22 -45 -237 228 -71 75 -134 143 -138 150 -4 8 -14 14
-21 14 -8 0 -19 7 -26 15 -14 17 -30 20 -30 5 0 -5 62 -74 139 -152 76 -79
162 -170 191 -203 28 -33 60 -67 70 -75 9 -9 23 -27 30 -40 12 -25 -113 100
-164 162 -15 18 -88 94 -162 169 -88 89 -134 144 -134 158 0 27 7 27 77 -8z
m1939 -158 c23 -17 52 -28 84 -31 37 -3 51 -9 55 -23 4 -11 12 -19 18 -19 6 0
4 -7 -5 -17 -16 -15 -20 -15 -60 0 -60 24 -166 117 -132 117 3 0 21 -12 40
-27z m345 -116 c-5 -5 -21 -7 -35 -5 l-27 3 21 23 c21 22 23 22 35 5 8 -10 10
-22 6 -26z m-102 14 c30 -5 32 -8 18 -19 -16 -14 -107 -7 -107 7 0 15 25 31
40 25 8 -4 30 -9 49 -13z m-78 -232 c24 -23 40 -43 34 -45 -33 -13 -79 -49
-93 -74 -9 -16 -22 -30 -28 -30 -6 0 -27 -15 -47 -33 -33 -32 -41 -34 -124
-40 -89 -6 -143 -19 -143 -36 0 -14 26 -21 118 -28 84 -7 85 -8 37 -14 -91
-11 -226 -10 -241 2 -25 21 -15 34 62 74 98 51 176 122 215 196 34 62 28 60
140 67 18 1 39 -11 70 -39z"/>
<path d="M3350 2563 c0 -6 12 -18 26 -28 14 -9 30 -30 36 -47 l11 -31 15 29
c8 16 20 32 26 36 6 5 1 8 -12 8 -13 0 -21 -4 -17 -9 3 -5 1 -12 -5 -16 -5 -3
-10 3 -10 14 0 13 -7 21 -17 21 -9 0 -25 7 -35 17 -10 9 -18 11 -18 6z"/>
<path d="M2922 2393 c2 -9 8 -18 15 -20 7 -3 9 3 6 16 -6 25 -26 28 -21 4z"/>
<path d="M2845 2190 l-30 -8 27 -1 c15 0 30 4 33 9 3 6 5 9 3 9 -2 -1 -16 -5
-33 -9z"/>
<path d="M2867 2164 c-16 -14 -22 -24 -14 -24 15 0 53 37 46 44 -2 2 -17 -7
-32 -20z"/>
<path d="M2411 1876 c-43 -15 -81 -60 -81 -94 1 -27 1 -27 15 5 18 43 59 83
84 83 11 0 23 5 26 10 8 12 -1 12 -44 -4z"/>
<path d="M1887 1665 c-21 -15 -22 -35 -2 -35 8 0 15 -4 15 -10 0 -13 -23 -13
-37 1 -7 7 -13 7 -17 1 -6 -11 19 -42 34 -42 4 0 18 8 31 19 21 17 22 21 9 37
-14 16 -13 17 8 12 29 -8 29 6 -1 19 -17 8 -28 7 -40 -2z"/>
<path d="M1936 1599 c-8 -12 -12 -27 -10 -34 8 -19 53 -36 80 -29 17 4 24 2
24 -8 0 -42 80 -65 100 -29 16 31 12 49 -16 68 -25 16 -28 16 -55 0 -29 -16
-29 -16 -18 4 15 29 -5 49 -52 49 -27 0 -42 -6 -53 -21z m74 1 c20 -13 2 -44
-29 -48 -26 -4 -38 22 -21 43 14 17 29 19 50 5z m110 -71 c0 -20 -40 -36 -59
-24 -16 9 -13 33 5 43 24 13 54 3 54 -19z"/>
<path d="M3050 2605 c0 -3 7 -21 14 -40 11 -24 21 -35 36 -35 l21 0 -22 40
c-13 22 -29 40 -36 40 -7 0 -13 -2 -13 -5z"/>
</g>
</svg>
